<svg width="332" height="333" viewBox="0 0 332 333" fill="none" xmlns="http://www.w3.org/2000/svg">
<path d="M253.897 79.6481C257.696 73.0638 259.845 65.6577 260.16 58.0624M71.8542 58.0624C72.1647 65.6564 74.3084 73.0624 78.1023 79.6481M32.1993 148.66C35.0712 146.321 38.1445 144.24 41.3831 142.443M290.616 142.443C293.854 144.24 296.928 146.321 299.799 148.66M71.8077 260.183C60.9886 260.188 50.3517 257.398 40.9283 252.083M291.071 252.083C281.648 257.398 271.011 260.188 260.192 260.183M166 56.1001C165.983 49.8322 164.715 43.6308 162.27 37.8593C159.826 32.0878 156.254 26.8624 151.764 22.4892C147.273 18.116 141.956 14.683 136.122 12.3915C130.288 10.1001 124.055 8.99617 117.789 9.14455C111.523 9.29292 105.349 10.6906 99.6304 13.2556C93.9114 15.8206 88.762 19.5014 84.4839 24.0822C80.2058 28.6631 76.8851 34.0518 74.7165 39.9325C72.5478 45.8132 71.5749 52.0677 71.8546 58.3293C62.6269 60.7019 54.0601 65.1433 46.8031 71.317C39.546 77.4907 33.789 85.2349 29.968 93.963C26.147 102.691 24.3622 112.174 24.7489 121.694C25.1355 131.214 27.6834 140.521 32.1997 148.911C24.2589 155.362 18.0147 163.655 14.0102 173.07C10.0056 182.485 8.36207 192.735 9.22246 202.93C10.0828 213.125 13.4211 222.955 18.9469 231.565C24.4727 240.175 32.0185 247.305 40.9281 252.334C38.9886 267.339 42.5321 282.54 50.9067 295.141C59.2813 307.742 71.924 316.896 86.5095 320.918C101.095 324.941 116.642 323.562 130.292 317.036C143.942 310.509 154.777 299.273 160.803 285.395C161.915 282.621 162.777 279.752 163.378 276.824C163.818 274.783 168.182 274.783 168.637 276.824C169.233 279.751 170.09 282.62 171.196 285.395C177.222 299.273 188.057 310.509 201.707 317.036C215.357 323.562 230.904 324.941 245.49 320.918C260.075 316.896 272.718 307.742 281.093 295.141C289.467 282.54 293.011 267.339 291.071 252.334C299.981 247.305 307.527 240.175 313.053 231.565C318.578 222.955 321.917 213.125 322.777 202.93C323.637 192.735 321.994 182.485 317.989 173.07C313.985 163.655 307.741 155.362 299.8 148.911C304.316 140.521 306.864 131.214 307.251 121.694C307.637 112.174 305.852 102.691 302.031 93.963C298.21 85.2349 292.453 77.4907 285.196 71.317C277.939 65.1433 269.373 60.7019 260.145 58.3293C260.425 52.0677 259.452 45.8132 257.283 39.9325C255.114 34.0518 251.794 28.6631 247.516 24.0822C243.237 19.5014 238.088 15.8206 232.369 13.2556C226.65 10.6906 220.477 9.29292 214.211 9.14455C207.944 8.99617 201.712 10.1001 195.878 12.3915C190.044 14.683 184.726 18.116 180.236 22.4892C175.746 26.8624 172.174 32.0878 169.729 37.8593C167.285 43.6308 166.017 49.8322 166 56.1001Z" stroke="black" stroke-width="18" stroke-linecap="round" stroke-linejoin="round"/>
<path d="M119.447 231.995H211.639M119.447 100.293H211.639M198.469 231.995V204.522C198.468 201.029 197.08 197.68 194.61 195.211L165.543 166.144M165.543 166.144L136.476 195.211C134.006 197.68 132.618 201.029 132.618 204.522V231.995M165.543 166.144L136.476 137.077C134.006 134.608 132.618 131.258 132.618 127.766V100.293M165.543 166.144L194.61 137.077C197.08 134.608 198.468 131.258 198.469 127.766V100.293" stroke="black" stroke-width="18" stroke-linecap="round" stroke-linejoin="round"/>
</svg>
